<svg xmlns="http://www.w3.org/2000/svg" viewBox="0 0 285 238.6"><defs><style>.a{fill:#fff;}</style></defs><title>magnify-images</title><path class="a" d="M286.8,78H249.9l-3.6-42.3a5.1,5.1,0,0,0-2.1-3.9,5.4,5.4,0,0,0-4.2-1.2L12.6,50.4a5.6,5.6,0,0,0-5.1,6L23.1,235.8a5.6,5.6,0,0,0,5.7,5.1h.6l23.4-2.1v24.6a5.7,5.7,0,0,0,5.7,5.7H286.8a5.7,5.7,0,0,0,5.7-5.7V83.4A5.6,5.6,0,0,0,286.8,78Zm-5.7,134.7-63.3-63.3a6,6,0,0,0-8.1,0L155.1,204l-24.9-24.9a6,6,0,0,0-8.1,0L64.2,236.7V89.4H281.1V212.7ZM34.2,229.2,19.5,61.2l216-18.9,3,35.7H58.5a5.7,5.7,0,0,0-5.7,5.7v144Zm30,23.7L126,191.1,193.2,258H64.2ZM209.1,258l-45.9-45.9,50.7-50.7,67.5,67.2V258Z" transform="translate(-7.5 -30.5)"/><path class="a" d="M110.1,157.8A22.8,22.8,0,1,0,87.3,135,22.8,22.8,0,0,0,110.1,157.8Zm0-34.2A11.4,11.4,0,1,1,98.7,135,11.4,11.4,0,0,1,110.1,123.6Z" transform="translate(-7.5 -30.5)"/></svg>